<?xml version="1.0" encoding="UTF-8"?>
<svg width="77px" height="121px" viewBox="0 0 77 121" version="1.1" xmlns="http://www.w3.org/2000/svg" xmlns:xlink="http://www.w3.org/1999/xlink">
    <!-- Generator: Sketch 46.2 (44496) - http://www.bohemiancoding.com/sketch -->
    <title>Group 2</title>
    <desc>Created with Sketch.</desc>
    <defs></defs>
    <g id="Page-1" stroke="none" stroke-width="1" fill="none" fill-rule="evenodd">
        <g id="Group-2" stroke="#FFFFFF">
            <path d="M38.8446081,109.450907 C28.5054263,104.505213 24.7517298,100.792446 19.1282264,94.8975253 C13.5047231,89.0026046 11.9101662,89.2057394 7.23843267,79.2831758 C4.12394368,72.6681334 2.23451214,65.4420385 1.57013804,57.6048912 C0.809953985,52.2970619 0.809953985,46.6286449 1.57013804,40.5996402 C2.3303221,34.5706356 3.77811519,28.7566344 5.91351732,23.1576365 L9.72699837,9.4972201 L13.501779,1 L32.4054516,13.970693 L43.8845952,23.1576365 L56.5813139,35.7542789 L66.8428824,46.2687779 C70.0220001,50.3742878 72.2310263,54.1529922 73.4699608,57.6048912 C74.7088953,61.0567901 75.2982081,65.0747717 75.2378992,69.6588357 C75.2378992,75.3798648 75.2378992,80.0911734 75.2378992,83.7927614 C75.2378992,87.4943494 75.4919328,91.1959374 76,94.8975253 C75.4919328,100.024669 75.2378992,103.376342 75.2378992,104.952544 C75.2378992,107.049443 75.5016152,104.65009 74.8238588,107.907634 C74.7374292,108.323046 75.3853966,108.830452 75.2378992,109.450907 C74.3684794,113.108161 72.9038169,116.624525 70.8439117,120 C56.4038305,116.2644 45.737396,112.748036 38.8446081,109.450907 Z" id="Path-8"></path>
            <path d="M17,3 L27.9233898,38.7158595 C33.6078976,51.3567552 36.8672025,58.9514687 37.7013046,61.5 C38.5354066,64.0485313 40.8800736,69.7540319 44.7353056,78.6165018 L70,120" id="Path-9"></path>
            <path d="M59,101 L70,81" id="Path-10"></path>
            <path d="" id="Path-11"></path>
            <path d="M58.7215705,100.171515 L31.5,92.5" id="Path-12"></path>
            <path d="M44,77 L57,57" id="Path-13"></path>
            <path d="M27.2436015,35.4902934 L15.5,27.5" id="Path-12"></path>
            <path d="M33,49.8848236 L42.6153846,32.1575509" id="Path-13"></path>
            <path d="M27,34.8848236 L30.5,23.5" id="Path-13"></path>
        </g>
    </g>
</svg>