<svg width="110px" height="118px" viewBox="0 0 110 118" version="1.1" xmlns="http://www.w3.org/2000/svg" xmlns:xlink="http://www.w3.org/1999/xlink">
    <g id="Page-1" stroke="none" stroke-width="1" fill="none" fill-rule="evenodd">
        <g id="Group" transform="translate(3.000000, 1.000000)" stroke="#FFFFFF" stroke-width="1">
            <polyline id="Path" points="22.2733923 68.9103496 12.4385452 60.1389972 6.09397895 52.8415194 0.500810373 43.7414981 0.500810373 34.6157994 0.500810373 28.2478386 12.4385452 34.6157994 19.0857223 40.929838 27.779368 48.5790941 36.4012079 60.1389972 41.2224627 68.9103496"></polyline>
            <polyline id="Path-2" points="28.8642601 49.6148416 28.8642601 45.8362024 27.8784441 40.8508996 27.8784441 37.2395054 28.8642601 33.2060913 30.2231718 30.8482517 33.0783695 27.0344444 37.0981257 23.1721829 39.6123465 20.9018734 41.7930448 18.3861671 45.0104107 18.3861671 49.3962379 20.9018734 52.4809129 23.1721829 55.3727958 24.5953269 57.5083401 27.0344444 59.924877 29.704891 61.3477926 33.2060913 63.2694701 36.1367835 64.5261317 39.509468 64.5261317 42.5115428 64.5261317 45.8362024 64.5261317 46.9615883 63.2694701 49.6148416"></polyline>
            <path d="M48.1796823,69.2777072 L49.2435516,65.7702548 L52.3204214,60.9498524 L55.7305796,56.8773625 L60.6058023,52.4008279 L64.3399256,49.5865818 C67.1531467,48.6750926 68.9661661,47.9753736 69.7789833,47.4874248 C70.5918007,46.9994758 72.1077497,46.5567103 74.3268301,46.159128 L76.9509893,45.29683 L80.8263466,45.29683 L82.9056923,45.29683 L84.8749825,47.4874248 L85.7398156,49.5865818 L85.7398156,51.4239304 L85.7398156,54.827441 L85.7398156,57.2872686 L84.8749825,60.9498524 L82.9056923,63.1681923 L80.8263466,65.7702548 L76.9509893,69.2777072 L74.3268301,70.6891287 L71.3871425,71.5283578 L66.9597489,72.1576008 L63.3173815,72.1576008 L58.3906434,72.1576008 L52.3204214,72.1576008 L49.2435516,72.1576008 L48.1796823,70.6891287 L43.594038,72.1576008 L41.0684074,69.2777072 L38.1887164,73.431475 L32.4470852,73.431475 L28.1763638,73.431475 L25.1853258,72.1576008 L23.2472429,70.6891287 L22.0356564,69.2777072" id="Path-3"></path>
            <polyline id="Path-4" points="68.2771475 45.8480326 73.427899 37.3255798 75.1848837 33.0866266 78.1150129 26.538288 80.2716315 21.5678339 82.2385801 16.2566382 84.9337681 12.5256717 88.0918136 10.4319852 90.0681285 8.85878963 92.6103316 12.5256717 94.4859577 14.5216684 94.4859577 16.2566382 95.3039585 19.3561383 95.3039585 22.4423526 95.3039585 26.538288 94.4859577 31.5087419 92.6103316 34.8817732 91.3560116 38.9144057 90.0681285 42.6492798 88.0918136 45.8480326 87.2753736 48.290276 85.9195841 49.875976"></polyline>
            <polyline id="Path-5" points="82.1329011 62.9534808 86.8699691 61.1020648 89.9554246 59.2951953 93.9267876 56.1738128 98.339153 51.9708094 100.426304 48.2578179 102.021718 43.7875354 102.021718 39.6556502 102.908406 36.1560129 102.908406 33.5965418 96.6891017 34.8977691 93.9267876 34.8977691 92.5206535 36.1560129"></polyline>
            <polyline id="Path-6" points="45.9076175 17.6255681 47.0768591 14.8214818 49.92191 11.6180399 52.9816078 9.65174082 57.4306584 6.19508707 58.7973754 5.34870317 59.7051379 6.19508707 63.2230099 9.65174082 64.5015266 11.6180399 66.2116791 13.7988479 68.1403815 16.6056872 68.9536992 19.5692033 68.9536992 22.0974136 68.9536992 25.9932804 68.9536992 29.0177548 68.9536992 32.0758344 68.9536992 34.1788991 68.9536992 38.5134529 68.9536992 39.7987944 68.1403815 42.6794696 67.0644904 45.058073 66.2116791 46.8785653"></polyline>
            <polyline id="Path-7" points="20.4704974 0 18.3279283 4.31476042 16.3172698 8.66468914 14.5360885 13.6718744 13.0210697 19.3292826 13.0210697 23.7167242 13.0210697 27.9275427 13.0210697 29.2037615 14.5360885 32.6205579 16.3172698 36.0006229 16.7457836 38.6265231"></polyline>
            <path d="M20.5332253,0.334293948 C23.8635088,2.18649141 25.8161475,3.259255 26.3911418,3.55258474 C26.966136,3.84591445 28.491562,4.75612233 30.9674196,6.28320832 L34.650765,8.76921683 L36.325013,11.111426 L37.5871384,12.6119404 L38.1909807,14.7374748 L39.0256647,15.7403566 L39.0256647,17.5276882" id="Path-8"></path>
            <path d="M65.7730956,48.3443134 L68.7778504,44.962536" id="Path-11"></path>
            <polyline id="Path-12" points="69.6126418 25.5344398 71.2228607 23.2765465 73.5629582 21.3948127 75.9600631 21.3948127 78.3852042 21.3948127 78.3852042 23.4646263 78.3852042 25.5344398"></polyline>
            <polyline id="Path-13" points="38.3954619 12.2133899 41.0187263 9.61583001 43.5821798 7.57502379 45.8540558 5.68299712 48.1960224 7.57502379 49.6398926 9.61583001 51.2753441 10.9660746"></polyline>
            <polyline id="Path-14" points="13.1812487 60.6743516 0.333873582 68.1862291 52.1110778 84.59741 102.870564 68.1862291 83.6328778 62.7009461"></polyline>
            <polyline id="Path-15" points="0 68.0288184 0 98.6891034 52.2248689 115.85491 99.7132546 100.893474 102.691898 68.0288184"></polyline>
        </g>
    </g>
</svg>