<?xml version="1.0" encoding="UTF-8"?>
<svg width="87px" height="116px" viewBox="0 0 87 116" version="1.1" xmlns="http://www.w3.org/2000/svg" xmlns:xlink="http://www.w3.org/1999/xlink">

    <g id="Page-1" stroke="none" stroke-width="1" fill="none" fill-rule="evenodd">
        <path d="M46.8452079,115 C31.4293779,105.97093 49.6873018,115.747616 19.7842699,106.445732 C18.9754259,106.194127 10.4076829,102.243494 10.7998068,98.9007688 C10.9134297,97.9321718 14.2966635,99.5503125 13.7222392,98.7621963 C12.5273877,97.1228473 9.95044917,97.0783052 8.46475648,95.6970549 C4.92887434,92.4097409 2.96875638,84.0068459 2.99838083,80.3341194 C3.00529833,79.4765144 5.6437911,81.1886815 5.57127955,80.3341194 C5.44855488,78.8877866 3.48434201,78.2770092 2.71916754,77.0435392 C2.01778058,75.9128954 1.40977444,74.6579188 1.23209827,73.3393096 C0.701401441,69.4007862 0.679285735,61.1796798 5.68296486,59.0952955 C6.62742981,58.7018595 7.75848547,59.107568 8.73983327,58.8181505 C9.01870623,58.7359058 8.09895044,58.6796815 7.96217257,58.4231154 C7.62643686,57.793347 7.48358266,57.0619478 7.42442846,56.3507324 C7.30305523,54.8914526 7.17962536,53.4014873 7.42442846,51.9577767 C7.64400085,50.6628626 8.1391069,49.4013995 8.79567593,48.2638883 C10.1900999,45.8480376 13.3429877,42.7718008 16.3240934,42.4872757 C17.2255394,42.4012391 18.7578474,43.599345 19.0293599,42.7354653 C21.3181976,35.4530001 19.9356078,35.6013099 22.8026472,32.037686 C25.9328353,28.1469782 29.0191247,24.0080889 33.2709923,18.6414732 C40.8624468,9.05970286 46.0609106,0.452840137 45.9724078,1.02720518 C45.6992109,2.80019767 48.1996694,9.26885242 49.4822222,10.9403109 C52.5448932,14.9316691 55.1523723,19.2557608 58.1502435,23.2960159 C59.2170749,24.733793 59.5044596,25.9695719 60.4103244,27.5138326 C60.6020589,27.8406895 64.8239952,36.787749 65.7158895,36.5493398 C67.3569902,36.1106628 69.1651947,36.1327825 70.812049,36.5493398 C72.0935843,36.8734929 73.1839365,37.7861434 74.1543354,38.6837703 C75.3536952,39.7931877 76.4613453,41.0561436 77.238091,42.4934804 C82.0662849,51.4278591 76.8428693,45.6779401 79.1884475,57.2090547 C79.320821,57.8598169 80.7766453,56.8149894 81.1760325,57.345559 L82.9774752,58.8595154 C85.8483069,62.6732974 86.6684876,67.8669986 85.8233825,72.4975332 C85.0846073,76.5454604 83.5241995,73.837642 81.7613462,76.7022785 C81.5626615,77.0251412 82.5956025,76.8079846 82.8223567,77.1117913 C83.9152521,78.5760589 85.1143545,80.0772373 85.5958754,81.8398029 C88.1622684,91.2338639 84.1698343,92.7832947 77.111928,94.6753411 C76.6709084,94.7935673 78.3636523,94.5008307 78.45422,94.9483496 L79.8626959,97.5212483 C80.1527423,98.9544437 80.3121963,100.516552 79.8626959,101.907999 C79.3115217,103.614182 73.1080263,105.424778 73.0374823,105.440564 C71.8789609,105.699812 70.0796553,104.418344 69.4759617,105.440564 L67.8647976,104.629812 C67.3030615,105.580987 68.4255727,106.921998 67.9992337,107.941074 C67.6768096,108.711763 66.7180628,109.128355 65.9040999,109.316458 C62.5983875,110.080395 59.1110672,109.899376 55.8276027,110.75389 C53.6595554,111.318119 51.8038064,112.741002 49.7076611,113.531545 C48.9695389,113.809921 46.8701893,114.545803 47.3767472,113.941058 C48.6253996,112.450376 63.9682233,106.988461 59.1388654,103.835605 C57.6835361,102.88549 53.7557132,105.565376 53.9248158,103.835605 C54.0982988,102.061027 62.4578874,94.5649937 61.0023555,90.0941749 C60.0070546,87.0370036 54.4966947,93.6723914 50.5949389,92.8056462 C50.3439062,92.7498812 50.4117761,92.2146855 50.5949389,92.0341902 L52.642503,90.9256101 C53.4053244,90.1738977 54.0305464,89.2493999 54.429468,88.2555038 C54.7363941,87.4908104 55.2902698,86.3737728 54.7004083,85.7984268 C50.5740973,81.7736581 48.6068057,94.0953377 55.9041278,80.5078522 C56.5702132,79.2676129 57.8366459,77.0172043 56.6011269,76.3424036 C53.5265908,74.6631911 48.4680248,79.7224324 48.0799511,74.6340319 C47.7654745,70.5106343 48.2462657,66.3528069 47.9413785,62.2286891 C47.8687637,61.2464495 47.4652087,60.2863739 46.9568932,59.442761 C46.8210027,59.2172338 46.3006763,59.0705646 46.1792325,59.3041884 C44.0368996,63.4254343 46.1770734,70.1898181 44.9300115,53.3765938 C44.8693328,52.5585061 44.6886513,51.7313977 44.346766,50.9857008 C44.2755099,50.8302819 43.9606094,50.8709741 43.8338409,50.9857008 C40.7779579,53.7513012 44.7193638,58.8327287 40.9258862,62.4561962 C40.1727299,63.1755987 40.0241927,60.4750979 39.1802861,59.8646833 C38.3501018,59.2641942 37.1006825,58.532112 36.2164888,59.0497941 C35.482922,59.4792865 36.0713642,60.7623726 36.2164888,61.5999421 C36.5178094,63.338979 37.3233714,64.9742531 37.5463713,66.7250571 C37.9005874,69.5060573 38.2493811,72.3400039 37.9393382,75.1262746 C37.8903893,75.5661644 36.9808721,75.3701617 36.6115239,75.1262746 C35.5961394,74.4557985 34.0592891,71.328671 34.0303522,72.5451029 L31.0975786,71.9618574 C30.9837275,76.7478586 38.1839446,86.9829632 37.0313779,90.6133048 C36.904957,91.0115042 36.1600689,90.782373 35.7780205,90.6133048 C34.4516845,90.0263602 29.6076299,86.3398973 27.4285092,87.3454753 C26.6097275,87.7233106 27.263571,89.1641988 27.4285092,90.0507418 C27.6326068,91.1477667 27.8928377,92.2926054 28.5205434,93.215159 C31.1078654,97.0178062 34.5113248,100.233535 36.9920813,104.106545 C37.2609272,104.526273 35.9310676,104.351103 35.496739,104.106545 C33.44837,102.953169 31.7730449,101.214552 29.7449453,100.025895 C28.176036,99.1063666 26.5676042,97.9967178 24.7584029,97.8128711 C24.1925491,97.7553704 24.5218131,99.0019491 24.7584029,99.5191745 C26.4716732,103.264675 29.3929318,106.53405 32.4067786,109.386779" id="Path-2" stroke="#FFF5F5"></path>
    </g>
</svg>