<?xml version="1.0" encoding="UTF-8"?>
<svg width="93px" height="101px" viewBox="0 0 93 101" version="1.1" xmlns="http://www.w3.org/2000/svg" xmlns:xlink="http://www.w3.org/1999/xlink">
    <g id="Page-1" stroke="none" stroke-width="1" fill="none" fill-rule="evenodd">
        <g id="Group" transform="translate(-15.000000, -24.000000)">
            <rect id="Rectangle-Copy" fill="transparent" x="0" y="0" width="502" height="145" rx="4"></rect>
            <path d="M62.2796956,117.030293 C60.0537934,119.615045 56.3636916,120.760964 53.1681238,121.323193 C44.0637524,122.925017 32.7900041,113.372108 29.5178519,105.206022 C27.6588234,100.566571 26.9830024,95.4501663 24.6830463,91.0127471 C23.2139242,88.1782971 18.6330346,86.9599943 18.4100718,83.7752315 C18.276113,81.8617875 22.3022401,83.0513181 24.1592901,83.5315034 C30.1017542,85.0680713 35.6629598,87.8255937 41.4933733,89.7439779 C42.2424291,89.9904402 43.1014819,90.2733246 43.8442263,90.0084489 C44.1904765,89.88497 44.1601344,89.0936072 43.8442263,88.9056223 L42.9989563,87.6904388 C41.9884054,87.0890985 21.9955935,79.937249 21.5612519,72.1212238 C21.3780963,68.8253196 21.2501184,65.5045495 21.5612519,62.2182558 C21.6714847,61.0539407 22.1218862,59.8853504 22.8092782,58.9391617 C25.6041469,55.0920512 27.9086561,60.3743579 28.8609959,61.7619138 C31.252665,65.2465674 46.1476804,81.7827425 51.413627,78.5186552 C52.0739224,78.1093723 51.4153695,76.783003 50.8414709,76.2594164 C48.7260284,74.3294284 24.6695341,60.4262364 27.7547122,50.6610479 C28.5887335,48.0212085 30.1760428,45.6299606 31.9015476,43.465018 C33.3632605,41.6310477 35.1763235,40.0272346 37.1892382,38.823812 C42.6255006,35.5737382 40.2167487,43.5175168 41.0681455,45.6309141 C41.5246878,46.7641756 48.7863461,70.0689363 58.3123432,67.2034469 C59.3736342,66.8842028 58.4759738,64.5772188 58.0686151,64.2095665 C56.4475401,62.7465024 54.3322969,61.8319947 52.9019243,60.1820023 C49.8010281,56.6049936 47.1080499,52.6749811 44.5926963,48.6645515 C43.4615682,46.8611034 42.5447417,44.8835049 42.0136724,42.8219905 C41.515989,40.8900741 40.6677502,38.644076 41.5504161,36.8549727 C42.9822764,33.9526899 45.9324008,32.0735926 48.3678896,29.9424279 C49.0923849,29.3084612 50.0180182,28.900906 50.9434564,28.6356302 C59.8053638,26.0953749 53.3518371,39.7668503 55.0730062,44.4451162 C55.2366319,44.8898632 61.2839087,52.5683134 63.1955488,49.9990063 C63.7640702,49.2348947 63.8858809,48.0958568 63.6380622,47.1762542 C62.2371403,41.9777301 59.5992996,37.1542348 58.3244432,31.9233672 C57.904237,30.1992177 58.4680456,28.3756629 58.6252141,26.6080196 C58.6512058,26.3156955 60.3586993,26.1583767 63.619048,25.1629364 C66.8046635,24.1903135 70.1171791,23.1850484 73.4442304,23.342754 C83.9067738,23.8386893 75.3166493,48.1835071 77.0949667,50.244463 C78.7381544,52.1488121 79.4985181,50.0021529 79.784619,49.0137223 C80.711548,45.8113387 81.7159731,42.6125277 82.2599289,39.3233682 C82.6576434,36.9184921 80.9587001,33.8248828 82.5952712,32.0184385 C85.0386701,29.3214188 96.6419086,41.4813933 94.8024207,44.8150298 C91.3568082,51.0593874 85.0460023,56.7474077 81.1484595,62.9356117 C79.9424281,64.850451 78.8117063,66.9081085 78.3602787,69.1256149 C78.2586719,69.624729 79.5661657,69.5201362 79.8883331,69.1256149 L80.8926313,68.0953881 C86.5247022,61.1984391 91.8096075,54.0106433 97.6908584,47.324911 C97.961389,47.0173753 98.6101427,47.3408428 98.8749277,47.653339 C114.701226,66.3313525 90.4163654,62.6012698 82.5952712,78.5186552 C82.4400177,78.8346248 84.7046654,80.6380872 89.7138785,77.0234007 C92.5860138,74.950846 94.2448052,73.6130878 95.5992907,72.4134896 C98.2823285,70.0372609 102.083151,67.3482611 104.22139,64.2095665 C106.359629,61.0708719 108.008683,58.9391617 108.008683,61.7619138 C108.008683,64.5846659 107.636003,67.7204369 108.008683,70.4808124 C108.481575,73.9834421 109.71862,77.3753324 109.972336,80.9006223 C110.13826,83.2060571 109.839293,85.5612874 109.254981,87.79761 C108.622117,90.2197524 107.576853,92.5398264 106.359629,94.7274404 C103.014564,100.739242 100.111231,107.146211 95.5992907,112.339823 C93.7637765,114.45265 90.7199067,115.28394 87.9849472,115.878203 C72.5056591,119.2416 77.3231623,115.022455 70.6646925,106.099692 C70.1271789,105.37939 68.7709704,104.587827 68.1202399,105.20775 C66.8846319,106.384862 67.223367,108.518295 66.5023,110.065027 C66.3523907,110.386592 65.2355324,112.027823 65.0656063,112.339823 C64.474888,113.424439 64.72814,113.127478 63.9734045,114.102963 C63.2926953,114.98277 62.5207939,116.750326 62.2796956,117.030293 Z" id="Path-2-Copy" stroke="#FFF5F5" transform="translate(64.212319, 72.413490) scale(-1, 1) rotate(-30.000000) translate(-64.212319, -72.413490) "></path>
        </g>
        <path d="M47.2796956,93.0302934 C45.0537934,95.6150451 41.3636916,96.7609643 38.1681238,97.3231928 C29.0637524,98.9250169 17.7900041,89.3721082 14.5178519,81.2060217 C12.6588234,76.5665712 11.9830024,71.4501663 9.68304629,67.0127471 C8.21392418,64.1782971 3.63303464,62.9599943 3.41007181,59.7752315 C3.27611305,57.8617875 7.30224005,59.0513181 9.15929008,59.5315034 C15.1017542,61.0680713 20.6629598,63.8255937 26.4933733,65.7439779 C27.2424291,65.9904402 28.1014819,66.2733246 28.8442263,66.0084489 C29.1904765,65.88497 29.1601344,65.0936072 28.8442263,64.9056223 L27.9989563,63.6904388 C26.9884054,63.0890985 6.99559349,55.937249 6.56125188,48.1212238 C6.37809633,44.8253196 6.25011838,41.5045495 6.56125188,38.2182558 C6.6714847,37.0539407 7.12188617,35.8853504 7.80927821,34.9391617 C10.6041469,31.0920512 12.9086561,36.3743579 13.8609959,37.7619138 C16.252665,41.2465674 31.1476804,57.7827425 36.413627,54.5186552 C37.0739224,54.1093723 36.4153695,52.783003 35.8414709,52.2594164 C33.7260284,50.3294284 9.66953405,36.4262364 12.7547122,26.6610479 C13.5887335,24.0212085 15.1760428,21.6299606 16.9015476,19.465018 C18.3632605,17.6310477 20.1763235,16.0272346 22.1892382,14.823812 C27.6255006,11.5737382 25.2167487,19.5175168 26.0681455,21.6309141 C26.5246878,22.7641756 33.7863461,46.0689363 43.3123432,43.2034469 C44.3736342,42.8842028 43.4759738,40.5772188 43.0686151,40.2095665 C41.4475401,38.7465024 39.3322969,37.8319947 37.9019243,36.1820023 C34.8010281,32.6049936 32.1080499,28.6749811 29.5926963,24.6645515 C28.4615682,22.8611034 27.5447417,20.8835049 27.0136724,18.8219905 C26.515989,16.8900741 25.6677502,14.644076 26.5504161,12.8549727 C27.9822764,9.95268994 30.9324008,8.07359264 33.3678896,5.94242789 C34.0923849,5.30846119 35.0180182,4.90090601 35.9434564,4.63563023 C44.8053638,2.09537489 38.3518371,15.7668503 40.0730062,20.4451162 C40.2366319,20.8898632 46.2839087,28.5683134 48.1955488,25.9990063 C48.7640702,25.2348947 48.8858809,24.0958568 48.6380622,23.1762542 C47.2371403,17.9777301 44.5992996,13.1542348 43.3244432,7.9233672 C42.904237,6.19921767 43.4680456,4.37566289 43.6252141,2.60801957 C43.6512058,2.31569549 45.3586993,2.15837667 48.619048,1.16293645 C51.8046635,0.190313542 55.1171791,-0.814951646 58.4442304,-0.657246009 C68.9067738,-0.161310746 60.3166493,24.1835071 62.0949667,26.244463 C63.7381544,28.1488121 64.4985181,26.0021529 64.784619,25.0137223 C65.711548,21.8113387 66.7159731,18.6125277 67.2599289,15.3233682 C67.6576434,12.9184921 65.9587001,9.82488279 67.5952712,8.01843846 C70.0386701,5.32141882 81.6419086,17.4813933 79.8024207,20.8150298 C76.3568082,27.0593874 70.0460023,32.7474077 66.1484595,38.9356117 C64.9424281,40.850451 63.8117063,42.9081085 63.3602787,45.1256149 C63.2586719,45.624729 64.5661657,45.5201362 64.8883331,45.1256149 L65.8926313,44.0953881 C71.5247022,37.1984391 76.8096075,30.0106433 82.6908584,23.324911 C82.961389,23.0173753 83.6101427,23.3408428 83.8749277,23.653339 C99.7012259,42.3313525 75.4163654,38.6012698 67.5952712,54.5186552 C67.4400177,54.8346248 69.7046654,56.6380872 74.7138785,53.0234007 C77.5860138,50.950846 79.2448052,49.6130878 80.5992907,48.4134896 C83.2823285,46.0372609 87.0831505,43.3482611 89.2213896,40.2095665 C91.3596286,37.0708719 93.0086828,34.9391617 93.0086828,37.7619138 C93.0086828,40.5846659 92.6360028,43.7204369 93.0086828,46.4808124 C93.4815749,49.9834421 94.7186197,53.3753324 94.9723364,56.9006223 C95.1382596,59.2060571 94.8392929,61.5612874 94.2549806,63.79761 C93.6221168,66.2197524 92.5768529,68.5398264 91.3596286,70.7274404 C88.0145639,76.7392416 85.1112307,83.146211 80.5992907,88.3398232 C78.7637765,90.4526503 75.7199067,91.2839404 72.9849472,91.8782026 C57.5056591,95.2415998 62.3231623,91.0224546 55.6646925,82.0996915 C55.1271789,81.3793899 53.7709704,80.5878267 53.1202399,81.2077503 C51.8846319,82.3848619 52.223367,84.5182949 51.5023,86.0650273 C51.3523907,86.3865917 50.2355324,88.0278226 50.0656063,88.3398232 C49.474888,89.4244388 49.72814,89.1274778 48.9734045,90.1029629 C48.2926953,90.98277 47.5207939,92.7503264 47.2796956,93.0302934 Z" id="Path-2-Copy" stroke="#FFF5F5" transform="translate(49.212319, 48.413490) scale(-1, 1) rotate(-30.000000) translate(-49.212319, -48.413490) "></path>
    </g>
</svg>